<svg xmlns="http://www.w3.org/2000/svg" version="1.1" xmlns:xlink="http://www.w3.org/1999/xlink" xmlns:svgjs="http://svgjs.dev/svgjs" width="1500" height="1500" viewBox="0 0 1500 1500"><rect width="1500" height="1500" fill="#000000"></rect><g transform="matrix(0.6666666666666666,0,0,0.6666666666666666,249.05886562891385,209.26129032258063)"><svg viewBox="0 0 230 248" data-background-color="#af6834" preserveAspectRatio="xMidYMid meet" height="1617" width="1500" xmlns="http://www.w3.org/2000/svg" xmlns:xlink="http://www.w3.org/1999/xlink"><g id="tight-bounds" transform="matrix(1,0,0,1,0.21646090534980544,0.4000000000000057)"><svg viewBox="0 0 229.5670781893004 247.2" height="247.2" width="229.5670781893004"><g><svg viewBox="0 0 229.5670781893004 247.2" height="247.2" width="229.5670781893004"><g><svg viewBox="0 0 229.5670781893004 247.2" height="247.2" width="229.5670781893004"><g id="textblocktransform"><svg viewBox="0 0 229.5670781893004 247.2" height="247.2" width="229.5670781893004" id="textblock"><g><svg viewBox="0 0 229.5670781893004 247.2" height="247.2" width="229.5670781893004"><g transform="matrix(1,0,0,1,0,0)"><svg width="229.5670781893004" viewBox="1.25 -36.25 33.85 36.45" height="247.2" data-palette-color="#211f1f"><g class="wordmark-text-0" data-fill-palette-color="primary" id="text-0"><path d="M14.7 0.2L14.7 0.2Q13.3 0.2 12.15-0.3 11-0.8 10.45-1.55L10.45-1.55Q11.25-4.2 11.68-7.3 12.1-10.4 12.1-13.45L12.1-13.45Q12.1-17.25 11.4-20.58 10.7-23.9 9.28-25.95 7.85-28 5.6-28L5.6-28Q3.9-28 1.75-26.6L1.75-26.6 1.25-26.8Q1.5-31.1 3.4-33.55 5.3-36 8.2-36L8.2-36Q10.3-36 12.03-34.8 13.75-33.6 15.08-31.6 16.4-29.6 17.38-27.1 18.35-24.6 18.95-22L18.95-22Q20.05-27.15 21.8-30.28 23.55-33.4 25.55-34.83 27.55-36.25 29.4-36.25L29.4-36.25Q31.75-36.25 33.43-34.35 35.1-32.45 35.1-29.45L35.1-29.45Q35.1-27.8 34.5-25.9L34.5-25.9Q33.05-26.7 31.4-26.7L31.4-26.7Q29.25-26.7 27.1-25.43 24.95-24.15 23.18-21.83 21.4-19.5 20.4-16.35L20.4-16.35Q20.55-13.75 20.55-11.85L20.55-11.85Q20.55-9.25 20.25-6.98 19.95-4.7 19.15-1.65L19.15-1.65Q18.2-0.7 17.03-0.25 15.85 0.2 14.7 0.2Z" fill="#ffffff" data-fill-palette-color="primary"></path></g></svg></g></svg></g></svg></g></svg></g></svg></g><defs></defs></svg><rect width="229.5670781893004" height="247.2" fill="none" stroke="none" visibility="hidden"></rect></g></svg></g></svg>